<svg version="1.1" viewBox="0 0 48 48" xmlns="http://www.w3.org/2000/svg">
    <g transform="translate(-55.147 -112.99)">
        <path
            d="m101.05 135.84c-0.1386 4.103-0.93963 7.806-4.3031 10.389-4.0164 2.6437-10.082 0.74606-16.996 0.27752-5.2313-0.24113-8.7842 0.78761-15.815-0.6425-5.7211-1.1321-6.7846-6.4946-6.6906-8.521 0.20502-4.4207 3.5676-5.853 5.2553-6.7439 3.1399-1.6462 5.4529-2.1287 13.264-2.5485 3.9423-0.14236 7.3366-1.5084 10.405-1.6272 6.0037-0.23233 6.7432 0.4879 8.6638 1.146 1.867 0.63186 3.2581 1.9627 4.3922 3.1198 1.134 1.157 1.806 2.755 1.8247 5.1501z"
            opacity=".996" stroke="#000" stroke-width=".13553" />
    </g>
</svg>
