<svg version="1.1" viewBox="0 0 48 48" xmlns="http://www.w3.org/2000/svg">
    <g transform="translate(-55.147 -112.99)">
        <path
            d="m92.311 153.36c0 0.51594-0.5077 0.84335-1.038 0.84335-0.53027 0-0.9082-0.75559-0.9082-1.2715 0-0.51595 0.30011-0.64875 0.83036-0.64875 0.53027 0 1.1158 0.56098 1.1158 1.0769zm-23.296-6.3235c0 0.40275-0.55684 0.65833-1.1384 0.65833-0.58158 0-0.99609-0.58982-0.99609-0.99253 0-0.40275 0.32916-0.50642 0.91072-0.50642 0.58158 0 1.2238 0.43791 1.2238 0.84062zm-1.9156-24.191c0 0.83711-0.82375 1.3683-1.6841 1.3683-0.86035 0-1.4735-1.2259-1.4735-2.063 0-0.83712 0.48693-1.0526 1.3473-1.0526 0.86035 0 1.8104 0.91017 1.8104 1.7472zm32.929 6.7302c0 0.66456-0.80624 1.0863-1.6483 1.0863-0.84205 0-1.4422-0.97323-1.4422-1.6377 0-0.66454 0.47658-0.83559 1.3186-0.83559 0.84207 0 1.7719 0.72255 1.7719 1.387zm-5.2555-1.6593c0 0.35821-0.45007 0.58552-0.92015 0.58552s-0.8051-0.52458-0.8051-0.88276c0-0.3582 0.26604-0.4504 0.7361-0.4504 0.47007 0 0.98915 0.38947 0.98915 0.74764zm3.2901 15.931c3.0818 0.98707 4.2907 2.011 3.251 3.5184-1.1238 1.6294-3.3129 0.46529-4.4058-1.1567-2.5392-3.7686-5.943-2.331-5.943-2.331s-5.0463 1.5409-3.9638 5.7066c0.2536 0.97591 0.59858 2.2063-0.26829 2.2491-0.9046 0.0447-1.0408-0.71695-0.85954-2.0025 0.48047-3.4079-5.1045-3.6304-5.1045-3.6304s-8.1039-0.63681-8.2791 4.394c-0.09741 2.7969 0.09009 4.2327-1.446 4.2372-1.7311 5e-3 -1.6911-1.469-0.46634-4.1112 1.7285-3.7288-1.5909-6.2754-1.5909-6.2754 0.13731-0.16962-3.9487-3.4711-7.4236-0.63138-0.70801 0.57861-2.4932 2.6114-3.8009 0.64224-1.1858-1.7858 1.5086-2.689 2.5653-2.748 2.7408-0.15303 4.0044-2.3248 4.0044-2.3248s1.7692-4.3904-3.0248-5.7258c-0.66102-0.18413-6.535-0.81528-4.1094-3.966 2.2506-2.9235 4.4318 0.042 5.7232 0.79657 3.9671 2.3179 5.5759 1.3174 5.5759 1.3174s3.3651-1.4128 1.3984-4.4666c-0.84692-1.315-1.6463-3.4157-0.0062-3.7896 1.9467-0.44317 1.4294 1.6971 1.7558 3.3569 0.45776 2.328 4.5502 2.5004 4.5502 2.5004s5.0032 0.16584 3.6548-5.9616c-0.3666-1.6659-1.3495-4.3514 1.6447-4.294 2.5716 0.0493 1.3503 2.5156 0.50911 5.2472-1.7499 5.6826 1.9002 5.2934 1.9002 5.2934s4.5319 0.54371 5.2711-3.3797c0.39842-2.1147 0.49912-3.9712 2.0554-3.5994 1.8356 0.43852 0.41692 2.5833-0.60326 4.0285-2.0745 2.9389 0.23528 3.8711 0.23528 3.8711s1.9774 1.0279 2.6299-0.39954c0.15746-0.34444 0.78198-1.1813 1.5384-0.63521 0.297 0.21443 0.07582 1.0856-0.93846 1.2725-2.9215 0.53848 0.29778 2.268 0.29778 2.268s2.3789 1.1463 4.1279-0.22512c0.8167-0.64041 1.5895-0.63411 1.8372 0.10611 0.18002 0.60144-0.71929 0.78439-1.573 0.90896-2.1227 0.30975-3.1156 4.0508-3.1156 4.0508s-1.3898 4.6759 2.3964 5.8886z" />
    </g>
</svg>
