<svg version="1.1" viewBox="0 0 48 48" xmlns="http://www.w3.org/2000/svg">
    <g transform="matrix(.55408 0 0 .47303 .63519 -97.368)">
        <path
            d="m61.761 216.5c0 1.4606-1.4374 2.3876-2.9386 2.3876s-2.5713-2.1391-2.5713-3.5998c0-1.4606 0.84966-1.8366 2.3509-1.8366 1.5012 0 3.159 1.5882 3.159 3.0488zm2.9163 73.073c0 0.6486-0.73874 1.0602-1.5103 1.0602-0.77155 0-1.3215-0.94988-1.3215-1.5985 0-0.6486 0.43668-0.81556 1.2083-0.81556 0.77155 0 1.6236 0.70522 1.6236 1.3538zm-1.5167 10.069c0 2.9033-1.1498 3.9289-2.6108 3.9289s-2.7515-3.435-2.7515-6.3383c0-2.9033 0.97634-2.7753 2.0886-2.8337 1.4595-0.0766 3.2737 2.3398 3.2737 5.2431zm-56.31-51.634c0 1.2479-1.0484 2.0398-2.1433 2.0398-1.0949 0-1.4527-0.91913-1.4527-2.4977 0-1.2479 0.90155-1.7341 1.9965-1.7341s1.5995 0.94418 1.5995 2.192zm63.044 17.117c5.6914 1.2017 11.591 3.1432 10.166 8.6094-1.5693 6.0192-9.1418 0.73006-11.802-1.6402-6.375-5.6804-11.054 0.59692-11.054 0.59692s-4.4623 4.9677-2.3868 8.8839c1.6861 3.1816 1.9359 5.7716 0.25097 6.7157-2.6517 1.4857-4.1387-1.7999-4.2682-4.4224-0.27208-5.5105-9.0399-5.2194-9.0399-5.2194s-9.8227 0.7027-10.964 9.9365c-0.75073 6.0725-0.69459 17.698-8.2611 14.506-7.0106-2.9566 1.1183-14.917 2.5316-16.617 5.54-6.6647-1.11-14.157-1.11-14.157s-7.5557-7.9109-12.704-2.5394c-1.6768 1.7494-6.2205 5.703-8.2966 1.5642-2.5526-5.0889 3.5286-6.5156 6.0536-6.7972 3.8552-0.42987 5.6877-8.6428 5.6877-8.6428s1.0329-13.596-3.758-13.05c-1.9212 0.2185-7.3385 1.8603-5.9238-4.0249 1.4112-5.8709 5.4031-1.7234 6.589-0.88781 4.9132 3.4614 10.905-1.3198 10.905-1.3198s5.8245-6.6555-2.2765-15.389c-2.7673-2.9832-5.7184-10.419 0.15831-11.57 5.9897-1.1728 5.1478 5.1722 5.5277 8.9813 0.86475 8.6704 10.168 10.119 10.168 10.119s10.76 0.60443 9.9374-6.9058c-0.22067-2.0142-1.1164-7.7928 3.2461-6.8686 4.4648 0.94577 3.3867 5.7747 2.0492 6.9433-5.8746 5.133 4.0265 10.48 4.0265 10.48s10.372 8.3242 15.356-2.1876c2.3043-4.8597 7.5472-8.9085 10.424-3.6422 3.4676 6.3487-4.4448 8.3536-6.4676 9.0054-12.441 4.0093-11.607 18.268-11.607 18.268s-1.4255 9.526 6.8431 11.272z"
            opacity="0.1" fill="#2981c0" />
    </g>
</svg>
